# xmcd
# 
# Track frame offsets:
#     150
#     13075
#     27312
#     41062
#     55585
#     68827
#     83407
#     95622
#     109480
#     122092
#     135387
#     149217
#     162572
#     175567
# 
# Disc length: 2513
# 
# Revision: 3
# Processed by: cddbd v1.5.2PL0 Copyright (c) Steve Scherf et al.
# Submitted via: fre:ac v1.0.27
# 
DISCID=c009cf0e
DTITLE=Duke Ellington - Jazz Moods - Hot
DYEAR=2004
DGENRE=Jazz
TTITLE0=Hot And Bothered 1931
TTITLE1=It Don't Mean A Thing  (If It Ain't Got That Swing) 1932
TTITLE2=Cotton Tail 1940
TTITLE3=The Mooche  (78 rpm Version) 1928
TTITLE4=Battle Of Swing 1939
TTITLE5=Rockin' In Rhythm 1931
TTITLE6=Braggin' In Brass 1941
TTITLE7=Caravan 1937
TTITLE8=Ring Dem Bells 1930
TTITLE9=Merry-Go-Round 1935
TTITLE10=East St. Louis Toodle-Oo 1927
TTITLE11=In A Jam 1936
TTITLE12=Take The ''A'' Train 1941
TTITLE13=Tootin' Through The Roof 1939
EXTD=
EXTT0=
EXTT1=
EXTT2=
EXTT3=
EXTT4=
EXTT5=
EXTT6=
EXTT7=
EXTT8=
EXTT9=
EXTT10=
EXTT11=
EXTT12=
EXTT13=
PLAYORDER=
